<svg id="Logo" xmlns="http://www.w3.org/2000/svg" width="52.09" height="30" viewBox="0 0 52.09 30">
  <path id="Path_14" data-name="Path 14" d="M13.113-390.7a13.57,13.57,0,0,0-5.389,1.888c-.438.261-.806.5-.829.522s-.23.192-.461.361A16.922,16.922,0,0,0,1.1-380.567a16.4,16.4,0,0,0-.737,3.616,15.851,15.851,0,0,0,3.831,11.108,15.146,15.146,0,0,0,7.231,4.544c1.8.522,1.336.5,11.177.5,8.667,0,8.92-.008,9.1-.146l.184-.146v-6.847l-3.992-3.992c-4.115-4.115-4.191-4.184-4.475-3.9a19.625,19.625,0,0,0-.092,3.3v3.209H14.51L14.1-369.8c-.23-.261-.568-.652-.745-.86s-.43-.5-.537-.629-.353-.407-.53-.614-.89-1.052-1.6-1.873-1.382-1.62-1.5-1.766l-.215-.269.768-.883c.422-.484,1.006-1.144,1.29-1.459.445-.5,1.044-1.174,1.958-2.219.131-.146.284-.322.345-.391.33-.353.768-.852,1.067-1.213l.345-.4H27.207l2.418,2.441c1.328,1.343,3.815,3.861,5.535,5.6a27.973,27.973,0,0,0,3.309,3.163,40.443,40.443,0,0,0,4.383-4.26l.967-.99.015,7.684c.015,6.187.046,7.715.123,7.792a25.22,25.22,0,0,0,4.122.123c3.961.015,4.03.015,4.184-.138s.154-.161.138-14.892c-.023-11.96-.038-14.747-.123-14.831a15.428,15.428,0,0,0-3.155-.1H46.061l-2.288,2.334-3.831,3.9-1.535,1.566-2.955-2.963c-4.237-4.245-4.752-4.752-4.9-4.813-.069-.031-3.877-.046-8.46-.046C15.831-390.8,13.6-390.777,13.113-390.7Z" transform="translate(-0.318 390.8)"/>
</svg>
